<svg version="1.1" xmlns="http://www.w3.org/2000/svg" xmlns:xlink="http://www.w3.org/1999/xlink">

<defs>
<symbol id="ur-farben">
<g id="farben">
  <g class="service">
    <g>
      <title>Leitung, Organe und Verwaltung</title>
      <a xlink:href="http://www.uni-regensburg.de/verwaltung/organigramm/">
      <rect id="ur_1" class="item" height="10" width="40" y="0" x="0" fill="#34535D" stroke="#34535D" /></a>
    </g>
    <g>
      <title>Chancengleichheit und Familie</title>
      <a xlink:href="http://www.uni-regensburg.de/chancengleichheit/">
      <rect id="ur_2" class="item" height="10" width="40" y="0" x="40" fill="#5F002F" stroke="#5F002F" /></a>
    </g>
    <g>
      <title>Service-Einrichtungen der Verwaltung für Studierende</title>
      <a xlink:href="http://www.uni-regensburg.de/studium/studentenkanzlei/">
      <rect id="ur_3" class="item" height="10" width="40" y="0" x="80" fill="#51541A" stroke="#51541A"/></a>
    </g>
  </g>
  <g class="fakultaet">
    <g>
      <title>Fakultät für Rechtswissenschaft</title>
      <a xlink:href="http://www.uni-regensburg.de/rechtswissenschaft/fakultaet/">
      <rect id="ur_4" class="item" height="10" width="40" y="0" x="120" fill="#A4A90C" stroke="#A4A90C"/></a>
    </g>
    <g>
      <title>Fakultät für Wirtschaftswissenschaften</title>
      <a xlink:href="http://www-wiwi.uni-regensburg.de/Home/.de">
      <rect id="ur_5" class="item" height="10" width="40" y="0" x="160" fill="#8B8600" stroke="#8B8600"/></a>
    </g>
    <g>
      <title>Fakultät für Katholische Theologie</title>
      <a xlink:href="http://www.uni-regensburg.de/theologie/">
      <rect id="ur_6" class="item" height="10" width="40" y="0" x="200" fill="#BD9600" stroke="#BD9600"/></a>
    </g>
    <g>
      <title>Fakultät für Philosophie, Kunst-, Geschichts- und Gesellschaftswissenschaften</title>
      <a xlink:href="http://www.uni-regensburg.de/philosophie-kunst-geschichte-gesellschaft/fakultaet/">
      <rect id="ur_7" class="item" height="10" width="40" y="0" x="240" fill="#BD4E00" stroke="#BD4E00"/></a>
    </g>
    <g>
      <title>Fakultät für Psychologie, Pädagogik und Sportwissenschaft</title>
      <a xlink:href="http://www.uni-regensburg.de/psychologie-paedagogik-sport/fakultaet/">
      <rect id="ur_8" class="item" height="10" width="40" y="0" x="280" fill="#990022" stroke="#990022"/></a>
    </g>
    <g>
      <title>Fakultät für Sprach-, Literatur- und Kulturwissenschaften</title>
      <a xlink:href="http://www.uni-regensburg.de/sprache-literatur-kultur/fakultaet/">
      <rect id="ur_9" class="item" height="10" width="40" y="0" x="320" fill="#7D003C" stroke="#7D003C"/></a>
    </g>
    <g>
      <title>Fakultät für Biologie und Vorklinische Medizin</title>
      <a xlink:href="http://www.uni-regensburg.de/biologie-vorklinische-medizin/fakultaet/">
      <rect id="ur_10" class="item" height="10" width="40" y="0" x="360" fill="#3F9300" stroke="#3F9300"/></a>
    </g>
    <g>
      <title>Fakultät für Mathematik</title>
      <a xlink:href="http://www.uni-regensburg.de/mathematik/fakultaet/">
      <rect id="ur_11" class="item" height="10" width="40" y="0" x="400" fill="#007C5F" stroke="#007C5F"/></a>
    </g>
    <g>
      <title>Fakultät für Physik</title>
      <a xlink:href="http://www.physik.uni-regensburg.de/">
      <rect id="ur_12" class="item" height="10" width="40" y="0" x="440" fill="#006E76" stroke="#006E76"/></a>
    </g>
    <g>
      <title>Fakultät für Chemie und Pharmazie</title>
      <a xlink:href="http://www.uni-regensburg.de/chemie-pharmazie/fakultaet/">
      <rect id="ur_13" class="item" height="10" width="40" y="0" x="480" fill="#006C8E" stroke="#006C8E"/></a>
    </g>
    <g>
      <title>Fakultät für Medizin</title>
      <a xlink:href="http://www.uni-regensburg.de/medizin/fakultaet/">
      <rect id="ur_14" class="item" height="10" width="40" y="0" x="520" fill="#004455" stroke="#004455"/></a>
    </g>
  </g>
  <g class="service">
    <g>
      <title>Universitätsbibliothek</title>
      <a xlink:href="http://www.uni-regensburg.de/bibliothek/">
      <rect id="ur_15" class="item" height="10" width="40" y="0" x="560" fill="#83525D" stroke="#83525D"/></a>
    </g>
  </g>
  <g class="uebergreifend">
    <g>
      <title>Zentrum für Sprache und Kommunikation</title>
      <a xlink:href="http://www.uni-regensburg.de/zentrum-sprache-kommunikation/leitung/">
      <rect id="ur_16" class="item" height="10" width="40" y="0" x="600" fill="#5B3C41" stroke="#5B3C41"/></a>
    </g>
    <g>
      <title>Europaeum (Ost-West-Zentrum)</title>
      <a xlink:href="http://www.uni-regensburg.de/europaeum/europaeum/">
      <rect id="ur_17" class="item" height="10" width="40" y="0" x="640" fill="#453E59" stroke="#453E59"/></a>
    </g>
    <g>
      <title>Zentrum für Hochschul- und Wissenschaftsdidaktik</title>
      <a xlink:href="http://www.uni-regensburg.de/zentrum-hochschul-wissenschaftsdidaktik/">
      <rect id="ur_18" class="item" height="10" width="40" y="0" x="680" fill="#3B0041" stroke="#3B0041"/></a>
    </g>
    <g>
      <title>Regensburger Universitätszentrum für Lehrerbildung</title>
      <a xlink:href="http://www.uni-regensburg.de/rul/">
      <rect id="ur_19" class="item" height="10" width="40" y="0" x="720" fill="#866800" stroke="#866800"/></a>
    </g>
  </g>
  <g class="service">
    <g>
      <title>Zentrum für Weiterbildung</title>
      <a xlink:href="http://www.uni-regensburg.de/einrichtungen/">
      <rect id="ur_20" class="item" height="10" width="40" y="0" x="760" fill="#416224" stroke="#416224"/></a>
    </g>
  </g>
  <g class="uebergreifend">
    <g>
      <title>Sportzentrum</title>
      <a xlink:href="http://www.uni-regensburg.de/sport/">
      <rect id="ur_21" class="item" height="10" width="40" y="0" x="800" fill="#006062" stroke="#006062"/></a>
    </g>
  </g>
  <g class="service">
    <g>
      <title>Rechenzentrum</title>
      <a xlink:href="http://www.uni-regensburg.de/rechenzentrum/">
      <rect id="ur_22" class="item" height="10" width="40" y="0" x="840" fill="#032352" stroke="#032352"/></a>
    </g>
  </g>
</g>
</symbol>
</defs>

<defs>
<symbol id="ur-logo">
<style>
  .a{
    fill:#82858c;
  }
</style>
    <g transform="matrix(1.25 0 0 -1.25 0 113.05966)matrix(0.02093055 0 0 0.02093055 0 50.508475)">
      <path d="m1414.8 1212.6 261 0c86.9 0 151.4-14 193.4-42.3 42.1-28.2 63.1-71.1 63.1-128.7 0-42.6-11-77.4-33.3-104.9-22.2-27.4-54.3-45.7-96-55 34.4-12.6 62.1-48.4 83.1-107.6l0-0.5 78.5-217.6-182.5 0-57.7 179.8c-9.3 28.9-21.9 48.9-37.8 60.1-16.1 11-41 16.6-74.9 16.6l-25.4 0 0-256.4-171.4 0 0 656.5zm171.4-115.4 0-168.3 61.5 0c37.9 0 66.2 6.8 85.2 20.5 18.9 13.7 28.4 34.4 28.4 61.8 0 29.5-10.6 51.3-31.7 65.1-21 13.9-54.4 20.8-100 20.8l-43.4 0 0 0" class="a"/>
      <path d="m4122.2 178.3c-7.2 4.1-15.6 6.2-25.1 6.2-16.2 0-29.3-6.1-39.4-18.2-10.1-12.1-15.1-27.9-15.1-47.4 0-19.2 5-34.7 15.1-46.4 10-11.7 23.3-17.6 39.7-17.6 8.6 0 16.4 1.9 23.3 5.8 6.9 3.8 13.2 9.8 18.9 17.8l0-13.8c0-12.8-3.7-22.8-11-30-7.4-7.2-17.6-10.8-30.7-10.8-6.3 0-12.7 0.9-19.4 2.6-6.7 1.8-13.4 4.3-20.2 7.6l-1.9-26.2c7.2-2.6 14.5-4.6 21.9-5.9C4085.6 0.7 4093.1 0 4100.7 0c23.7 0 41.4 5.8 53.1 17.4 11.7 11.5 17.5 29.1 17.5 52.6l0 111.2-30.3 0 0-21.7c-5.3 8.5-11.6 14.8-18.8 18.9l0 0zm7.6-29.5c5.6-7.3 8.4-17.2 8.4-29.9 0-11.4-2.9-20.7-8.7-27.9-5.8-7.2-13.2-10.8-22.1-10.8-9.2 0-16.5 3.6-22.1 10.9-5.5 7.3-8.2 17.1-8.2 29.4 0 11.8 2.7 21.3 8.2 28.5 5.5 7.2 12.7 10.7 21.7 10.7 9.6 0 17.2-3.6 22.8-10.9l0 0zm-106.4 35.1c-1.8 0.2-3.4 0.3-4.9 0.3-8.5 0-15.8-2.4-22-7.1-6.2-4.7-11.4-11.8-15.4-21.2l0 25.3-29.2 0 0-126.7 32.5 0 0 59.2c0 13.6 2.8 23.9 8.4 31.1 5.6 7.1 13.8 10.7 24.5 10.7 2 0 4-0.1 5.9-0.4 1.9-0.3 3.7-0.7 5.4-1.3l1.2 29.3c-2.4 0.4-4.6 0.7-6.3 0.9l0 0zm-229.9-77c0-17.8 3.9-31.4 11.6-40.6 7.7-9.2 19-13.9 33.9-13.9 10 0 18.8 2.2 26.5 6.7 7.6 4.4 13.8 11 18.5 19.6l0-24.3 29.8 0 0 126.7-32.7 0 0-56.5c0-14.6-2.5-25.7-7.6-33.4-5.1-7.7-12.5-11.5-22.1-11.5-8.5 0-14.9 2.8-18.9 8.3-4.1 5.5-6.1 14.2-6.1 25.9l0 67.3-32.7 0 0-74.2zm-156.4-52.5 29.4 0 0 25.5c4.7-8.9 11-15.7 18.7-20.4 7.7-4.7 16.5-7.1 26.4-7.1 16 0 29 6.3 39.1 18.7 10.1 12.5 15.2 28.8 15.2 48.8 0 19.5-5 35.2-14.8 46.9-9.9 11.7-23 17.6-39.4 17.6-8.9 0-16.9-1.9-24-5.7-7-3.8-12.9-9.3-17.7-16.5l0 79.2-32.7 0 0-187zm86.6 94c5.4-7.7 8.1-17.9 8.1-30.7 0-12.2-2.8-22-8.4-29.3-5.6-7.3-13-11-22.1-11-9.6 0-17.3 3.7-22.9 11.1-5.7 7.4-8.5 17.4-8.5 29.9 0 12.9 2.9 23 8.7 30.4 5.8 7.4 13.7 11.1 23.7 11.1 8.9 0 16-3.8 21.4-11.5l0 0zm-140.9 34.5c-5 1-9.5 1.5-13.5 1.5-15.3 0-27.7-3.5-37-10.5-9.4-7-14.1-16.1-14.1-27.2 0-7.6 2.2-14 6.6-19.3 4.4-5.3 12.9-11 25.4-17.2 0.1-0.1 0.3-0.2 0.6-0.4 16.8-8.4 25.2-15.7 25.2-22 0-3.8-1.8-6.8-5.3-9-3.6-2.2-8.5-3.2-15-3.2-6.2 0-12.4 0.8-18.7 2.3-6.3 1.5-12.5 3.8-18.5 6.8l-1.8-25c5.9-2.1 12.2-3.7 18.9-4.8 6.6-1.1 13.5-1.6 20.5-1.6 16.6 0 29.7 3.5 39.3 10.6 9.6 7 14.4 16.6 14.4 28.6 0 8.6-2.6 15.7-7.7 21.6-5.1 5.8-14.5 11.7-28.1 17.8-0.7 0.3-1.8 0.8-3.3 1.5-13.3 5.9-19.9 11.6-19.9 17.2 0 3.8 1.6 6.6 4.7 8.6 3.2 2 7.6 3 13.5 3 5.4 0 10.8-0.7 16.2-2.2 5.5-1.5 11-3.7 16.6-6.6l2.4 24.1c-9.2 2.9-16.3 4.8-21.2 5.7l0 0zm-106.2-12.4c-7.6 9.2-18.9 13.8-33.8 13.8-10 0-18.8-2.2-26.4-6.6-7.6-4.4-13.8-11-18.6-19.6l0 22.9-29.7 0 0-126.7 32.5 0 0 63c0 12.3 2.7 22 8 29.1 5.4 7.1 12.6 10.7 21.7 10.7 8.6 0 14.9-2.8 18.9-8.4 4-5.6 6.1-14.2 6.1-25.9l0-68.5 32.8 0 0 75.4c0 17.9-3.8 31.5-11.5 40.7l0 0zm-223.3-41.5c1.2 10.8 4.6 19.1 10 25.1 5.5 6 12.4 9 20.7 9 8.2 0 14.9-3 20-9 5.1-6 8.2-14.3 9.1-25.1l-59.8 0 0 0zm73.9 38.2c-10.2 11.4-24.5 17.1-42.9 17.1-18.7 0-33.7-5.9-45.3-17.8-11.6-11.9-17.4-27.4-17.4-46.6 0-21.6 6-38.4 17.9-50.6 11.9-12.2 28.5-18.3 49.6-18.3 8.2 0 15.8 0.6 23 1.9 7.2 1.3 13.8 3.2 20 5.7l0 25c-5.8-3.1-11.8-5.4-18-6.9-6.2-1.5-12.6-2.3-19.2-2.3-12.1 0-21.7 3.1-29.1 9.2-7.3 6.2-11.5 14.6-12.4 25.2l89.2 0 0 10.3c0 20.7-5.1 36.7-15.3 48.2l0 0zm-182.2 11c-7.3 4.1-15.6 6.2-25.2 6.2-16.2 0-29.3-6.1-39.4-18.2-10.1-12.1-15.1-27.9-15.1-47.4 0-19.2 5-34.7 15.1-46.4 10.1-11.7 23.3-17.6 39.8-17.6 8.6 0 16.4 1.9 23.3 5.8 6.9 3.8 13.2 9.8 18.9 17.8l0-13.8c0-12.8-3.7-22.8-11-30-7.4-7.2-17.6-10.8-30.7-10.8-6.2 0-12.7 0.9-19.4 2.6-6.7 1.8-13.4 4.3-20.1 7.6L3079.1 7.9C3086.3 5.3 3093.6 3.4 3101 2 3108.5 0.7 3116 0 3123.5 0c23.7 0 41.4 5.8 53 17.4 11.7 11.5 17.5 29.1 17.5 52.6l0 111.2-30.3 0 0-21.7c-5.3 8.5-11.6 14.8-18.8 18.9l0 0zm7.6-29.5c5.6-7.3 8.4-17.2 8.4-29.9 0-11.4-2.9-20.7-8.7-27.9-5.8-7.2-13.2-10.8-22.1-10.8-9.2 0-16.5 3.6-22 10.9-5.5 7.3-8.2 17.1-8.2 29.4 0 11.8 2.8 21.3 8.3 28.5 5.5 7.2 12.7 10.7 21.7 10.7 9.6 0 17.2-3.6 22.8-10.9l0 0zm-194-19.6c1.2 10.8 4.6 19.1 10 25.1 5.5 6 12.4 9 20.8 9 8.2 0 14.9-3 20-9 5.1-6 8.2-14.3 9-25.1l-59.8 0 0 0zm73.9 38.2c-10.2 11.4-24.5 17.1-42.9 17.1-18.6 0-33.7-5.9-45.3-17.8-11.6-11.9-17.4-27.4-17.4-46.6 0-21.6 6-38.4 17.9-50.6 11.9-12.2 28.5-18.3 49.6-18.3 8.1 0 15.8 0.6 22.9 1.9 7.2 1.3 13.9 3.2 20 5.7l0 25c-5.8-3.1-11.8-5.4-18-6.9-6.2-1.5-12.6-2.3-19.2-2.3-12 0-21.8 3.1-29.1 9.2-7.4 6.2-11.5 14.6-12.4 25.2l89.2 0 0 10.3c0 20.7-5.1 36.7-15.3 48.2l0 0zm-249.1-112.9 33.7 0 0 72.7 10.7 0c8.6 0 15.1-1.5 19.5-4.4 4.4-3 8-8.2 10.7-15.8l19.5-52.5 36 0-24 60.3c-3.7 9.3-7.1 15.6-10.2 18.9-3 3.3-7.1 5.7-12 7.3 11.6 2.4 20.6 7.3 26.9 14.6 6.3 7.3 9.4 16.5 9.4 27.6 0 14.9-5.3 26.1-15.9 33.5-10.6 7.4-26.4 11.2-47.6 11.2l-56.8 0 0-173.5zm48.7 149.3c12.9 0 22.3-2.1 28.3-6.3 6-4.2 9-10.8 9-19.7 0-8.4-3-14.9-9-19.4-6-4.6-14.6-6.8-25.6-6.8l-17.6 0 0 52.2 15 0 0 0zm-211.2 8.2 0-30.8-26.5 0 0-23.9 25 0 0-57.5c0-17.2 3.2-29.6 9.8-37 6.5-7.4 17.2-11.1 32.2-11.1 3.8 0 7.5 0.3 11.4 0.7 3.8 0.5 7.5 1.2 11.1 2.2l-0.5 22.8c-2.4-0.7-4.6-1.3-6.7-1.6-2.1-0.4-4-0.5-5.7-0.5-6.7 0-11.5 2.1-14.4 6.1-2.9 4.1-4.4 10.9-4.4 20.3l0 55.5 30.5 0 0 23.9-30.5 0 0 41.3-31.2-10.5 0 0zm-135.1-6.5 25.1 0 0 27.7-25.1 0 0-27.7zm42.2 0 25.2 0 0 27.7-25.1 0 0-27.7zm32.1-34.8c-8.7 9.2-22.6 13.8-41.7 13.8-7.4 0-14.8-0.7-22.1-2.2-7.3-1.5-14.8-3.7-22.3-6.8l0.5-23.2c6.4 3.4 12.7 6 18.7 7.7 6.1 1.7 11.9 2.6 17.5 2.6 9.9 0 17.6-2.4 23.1-7.1 5.5-4.7 8.2-11.5 8.2-20.1l0-1.8-16.7 0c-22.2 0-38.9-3.5-50-10.6-11.1-7-16.7-17.6-16.7-31.7 0-11.8 3.9-21.4 11.7-28.9 7.8-7.5 18.1-11.2 30.8-11.2 8.9 0 16.9 2 24.2 6 7.2 4 13.5 9.9 18.8 17.8l0.5-20.5 28.8 0 0 72.3c0 20-4.4 34.6-13.1 43.9l0 0zm-18.1-55.6 0-6.8c0-10-2.9-18.2-8.7-24.5-5.8-6.3-13.1-9.5-22.1-9.5-6.2 0-11.2 1.7-15 5.2-3.8 3.4-5.7 7.9-5.7 13.5 0 7.3 3.4 12.8 10.1 16.5 6.7 3.7 16.7 5.5 30 5.5l11.5 0 0 0zm-162.2 96.9 0-30.8-26.5 0 0-23.9 25 0 0-57.5c0-17.2 3.2-29.6 9.8-37 6.5-7.4 17.2-11.1 32.2-11.1 3.8 0 7.5 0.3 11.4 0.7 3.8 0.5 7.5 1.2 11.1 2.2l-0.5 22.8c-2.4-0.7-4.6-1.3-6.7-1.6-2.1-0.4-4-0.5-5.7-0.5-6.7 0-11.5 2.1-14.4 6.1-2.9 4.1-4.4 10.9-4.4 20.3l0 55.5 30.5 0 0 23.9-30.5 0 0 41.3-31.2-10.5 0 0zm-82.1-5.5 32.5 0 0 31.5-32.5 0 0-31.5zm0-152 32.5 0 0 126.7-32.5 0 0-126.7zm-54.3 128.5c-5 1-9.5 1.5-13.5 1.5-15.3 0-27.6-3.5-37-10.5-9.4-7-14.1-16.1-14.1-27.2 0-7.6 2.2-14 6.6-19.3 4.4-5.3 12.9-11 25.4-17.2 0.1-0.1 0.3-0.2 0.6-0.4 16.8-8.4 25.1-15.7 25.1-22 0-3.8-1.8-6.8-5.3-9-3.5-2.2-8.5-3.2-15-3.2-6.2 0-12.4 0.8-18.7 2.3-6.3 1.5-12.5 3.8-18.5 6.8l-1.8-25c5.9-2.1 12.2-3.7 18.9-4.8 6.6-1.1 13.5-1.6 20.5-1.6 16.6 0 29.7 3.5 39.3 10.6 9.6 7 14.4 16.6 14.4 28.6 0 8.6-2.6 15.7-7.7 21.6-5.1 5.8-14.5 11.7-28.1 17.8-0.7 0.3-1.8 0.8-3.3 1.5-13.3 5.9-19.9 11.6-19.9 17.2 0 3.8 1.6 6.6 4.7 8.6 3.1 2 7.6 3 13.5 3 5.4 0 10.8-0.7 16.2-2.2 5.5-1.5 11-3.7 16.6-6.6l2.4 24.1c-9.2 2.9-16.3 4.8-21.2 5.7l0 0zm-86.4 0.9c-1.8 0.2-3.4 0.3-4.9 0.3-8.5 0-15.8-2.4-22-7.1-6.2-4.7-11.4-11.8-15.4-21.2l0 25.3-29.2 0 0-126.7 32.5 0 0 59.2c0 13.6 2.8 23.9 8.4 31.1 5.6 7.1 13.8 10.7 24.5 10.7 2 0 4-0.1 5.9-0.4 1.9-0.3 3.7-0.7 5.4-1.3l1.2 29.3c-2.4 0.4-4.5 0.7-6.3 0.9l0 0zm-186.3-54.7c1.2 10.8 4.6 19.1 10 25.1 5.5 6 12.4 9 20.8 9 8.2 0 14.9-3 20-9 5.1-6 8.1-14.3 9-25.1l-59.8 0 0 0zm73.9 38.2c-10.2 11.4-24.5 17.1-42.9 17.1-18.6 0-33.7-5.9-45.3-17.8-11.6-11.9-17.4-27.4-17.4-46.6 0-21.6 6-38.4 17.9-50.6 11.9-12.2 28.5-18.3 49.6-18.3 8.1 0 15.8 0.6 23 1.9 7.2 1.3 13.8 3.2 20 5.7l0 25c-5.8-3.1-11.8-5.4-18-6.9-6.2-1.5-12.6-2.3-19.2-2.3-12 0-21.7 3.1-29.1 9.2-7.4 6.2-11.5 14.6-12.4 25.2l89.2 0 0 10.3c0 20.7-5.1 36.7-15.3 48.2l0 0zm-199.6-112.9 37.5 0 46 126.7-32.5 0-31-97.4-30.3 97.4-34.9 0 45.2-126.7 0 0zm-99.1 152 32.5 0 0 31.5-32.5 0 0-31.5zm0-152 32.5 0 0 126.7-32.5 0 0-126.7zm-46.5 116.2c-7.6 9.2-18.9 13.8-33.8 13.8-10 0-18.8-2.2-26.4-6.6-7.6-4.4-13.8-11-18.6-19.6l0 22.9-29.7 0 0-126.7 32.5 0 0 63c0 12.3 2.7 22 8.1 29.1 5.4 7.1 12.6 10.7 21.7 10.7 8.5 0 14.8-2.8 18.9-8.4 4-5.6 6-14.2 6-25.9l0-68.5 32.8 0 0 75.4c0 17.9-3.8 31.5-11.5 40.7l0 0zM1413.7 125.7c0-24.6 5.8-43.3 17.3-55.9 11.6-12.6 28.7-18.9 51.4-18.9 23.1 0 40.5 6.4 52.1 19.1 11.6 12.8 17.4 31.8 17.4 57.2l0 100.7-32.2 0 0-100.5c0-16.5-3.1-29-9.3-37.4-6.2-8.4-15.3-12.6-27.5-12.6-12 0-20.9 3.9-26.5 11.8-5.7 7.9-8.5 20.2-8.5 37l0 101.7-34.2 0 0-102.2" class="a"/>
      <path d="m1414.6 1212.6c-6.7 384.8-321 695.6-707.4 695.6C316.6 1908.2 0 1591.5 0 1201 0 810.4 316.6 493.7 707.2 493.7l0 0c108.7 0 211.7 24.5 303.8 68.4 0 0-62.8 29.3-85.6 52.7-46.9 48.5-70.3 120.7-70.3 216.5l0 381.4 174.7 0 0-381.4c0-56 8.3-96.3 24.9-121.3 16.7-24.8 43.3-37.3 79.8-37.3 37.5 0 65.8 13.4 84.8 40.1 19.1 26.7 28.7 66.3 28.7 118.5l0 381.4 166.7-0.1" class="a"/>
    </g>
</symbol>
</defs>


</svg>
